<svg xmlns="http://www.w3.org/2000/svg" viewBox="0 0 64 64" role="img" aria-label="Cute couple avatar icon">
  <defs>
    <linearGradient id="bg" x1="8%" y1="6%" x2="92%" y2="94%">
      <stop offset="0%" stop-color="#ffe6f1"/>
      <stop offset="55%" stop-color="#ffb4cf"/>
      <stop offset="100%" stop-color="#ff8cad"/>
    </linearGradient>
    <linearGradient id="shirt-boy" x1="0%" y1="0%" x2="100%" y2="100%">
      <stop offset="0%" stop-color="#8fd3ff"/>
      <stop offset="100%" stop-color="#4fa9e8"/>
    </linearGradient>
    <linearGradient id="shirt-girl" x1="0%" y1="0%" x2="100%" y2="100%">
      <stop offset="0%" stop-color="#ffc4dc"/>
      <stop offset="100%" stop-color="#ff7cad"/>
    </linearGradient>
  </defs>

  <rect width="64" height="64" rx="18" fill="url(#bg)"/>
  <circle cx="18" cy="14" r="6" fill="#ffffff" opacity="0.2"/>
  <circle cx="50" cy="10" r="4" fill="#ffffff" opacity="0.18"/>
  <path d="M26 18c0-3.6 2.7-6.3 6-6.3 1.8 0 3.4 0.8 4.7 2.4 1.3-1.6 2.9-2.4 4.7-2.4 3.3 0 6 2.7 6 6.3 0 3.1-2.2 5.9-5.6 8.2L36.7 30l-5.1-3.8C28.2 23.9 26 21.1 26 18Z" fill="#ff4b72"/>
  <path d="M27.5 18c0-2.7 2-4.7 4.5-4.7 1.4 0 2.7 0.7 3.8 2 1.1-1.3 2.4-2 3.8-2 2.5 0 4.5 2 4.5 4.7 0 2.4-1.7 4.5-4.4 6.5l-4 3-4-3c-2.7-2-4.4-4.1-4.4-6.5Z" fill="#ff7093"/>

  <ellipse cx="22.5" cy="50" rx="12.5" ry="10.2" fill="url(#shirt-boy)"/>
  <ellipse cx="41.5" cy="50" rx="12.5" ry="10.2" fill="url(#shirt-girl)"/>
  <path d="M36 42.8h11l-2.1 3.5h-6.8Z" fill="#fff4fb" opacity="0.95"/>
  <path d="M24.8 47.6c2.6 0.2 4.9 1.7 6.3 4.1" stroke="#9fdcff" stroke-width="2.2" stroke-linecap="round" fill="none" opacity="0.95"/>
  <path d="M39.2 47.5c-2.4 0.4-4.7 1.9-6 4.2" stroke="#ffb6d2" stroke-width="2.2" stroke-linecap="round" fill="none" opacity="0.95"/>

  <circle cx="22.5" cy="31.5" r="10.2" fill="#6f4a3b"/>
  <path d="M31.8 31.6c0-6.7 4.5-11.4 10.1-11.4 5.9 0 10.4 4.8 10.4 11.6 0 3.5-1.2 6.8-3.2 9.7-1.6 2.3-2.9 3.9-4.5 5.5h-6.1c-1.8-1.8-3.2-3.6-4.8-6-1.2-1.8-1.9-4.1-1.9-6.6v-2.8Z" fill="#5d3c68"/>
  <circle cx="22.5" cy="34.6" r="8.1" fill="#ffe7d8"/>
  <ellipse cx="41.5" cy="34.9" rx="7.9" ry="8.5" fill="#ffe6dc"/>

  <path d="M14.3 29.8c1.6-6.8 7.8-10.2 14.1-7.8 0.1 2.8-1.5 4.7-3.6 5.9-1.8-1-5.9-0.7-10.5 1.9Z" fill="#5d3a2c"/>
  <path d="M32.5 30.2c1.7-6.5 8.6-9.1 14.3-5.6 0.2 2.8-1 4.9-3.1 6.5-2-0.9-6.4-0.9-11.2-0.9Z" fill="#503053"/>
  <path d="M34.7 28.1c1.9-2 5.6-2.7 8.1-0.8" stroke="#7b587f" stroke-width="1.6" stroke-linecap="round" fill="none"/>
  <path d="M34 39.6c0.4 2.8 1.9 5.1 4.6 7.4" stroke="#6f4d74" stroke-width="1.4" stroke-linecap="round" fill="none"/>
  <path d="M49 39.2c-0.3 2.8-1.8 5.4-4.6 7.8" stroke="#6f4d74" stroke-width="1.4" stroke-linecap="round" fill="none"/>

  <circle cx="19.8" cy="34.6" r="1.15" fill="#3d2a27"/>
  <circle cx="24.9" cy="34.6" r="1.15" fill="#3d2a27"/>
  <circle cx="38.8" cy="34.7" r="1.15" fill="#3d2a27"/>
  <circle cx="44" cy="34.7" r="1.15" fill="#3d2a27"/>

  <circle cx="17.8" cy="37.9" r="1.5" fill="#ffb5bf"/>
  <circle cx="27.2" cy="37.9" r="1.5" fill="#ffb5bf"/>
  <circle cx="36.8" cy="38" r="1.5" fill="#ffb5bf"/>
  <circle cx="46.2" cy="38" r="1.5" fill="#ffb5bf"/>

  <path d="M20.8 39.3c1.1 1 2.3 1 3.4 0" stroke="#aa6b68" stroke-width="1.1" stroke-linecap="round" fill="none"/>
  <path d="M39.8 39.3c1.1 1 2.3 1 3.4 0" stroke="#aa6b68" stroke-width="1.1" stroke-linecap="round" fill="none"/>

  <ellipse cx="32" cy="55.2" rx="7.2" ry="5.7" fill="#ffd06b"/>
  <path d="M27.6 51.7c1.1-1.4 2.7-2.1 4.4-2.1s3.3 0.8 4.4 2.1" stroke="#fff0b8" stroke-width="1.1" stroke-linecap="round" fill="none" opacity="0.9"/>
  <circle cx="32" cy="45.3" r="5.7" fill="#ffe8de"/>
  <path d="M28 44.7c0.5-3.3 2.6-5.3 5.6-5.3 1.7 0 3.1 0.6 4.2 1.8-0.1 1.9-1.4 3-3.1 3.8-2-0.4-4.1-0.4-6.7-0.3Z" fill="#5a3a33"/>
  <circle cx="29.3" cy="40.9" r="1.15" fill="#ff7ea8"/>
  <circle cx="34.7" cy="40.9" r="1.15" fill="#ff7ea8"/>
  <path d="M30.3 41.1c0.5-1.3 1.4-2 2.7-2" stroke="#5a3a33" stroke-width="0.9" stroke-linecap="round" fill="none"/>
  <circle cx="30" cy="45.2" r="0.72" fill="#3d2a27"/>
  <circle cx="34" cy="45.2" r="0.72" fill="#3d2a27"/>
  <circle cx="28.4" cy="47.3" r="1.05" fill="#ffb5bf"/>
  <circle cx="35.6" cy="47.3" r="1.05" fill="#ffb5bf"/>
  <path d="M30.6 48.3c0.8 0.8 2 0.8 2.8 0" stroke="#b87a74" stroke-width="0.8" stroke-linecap="round" fill="none"/>
  <path d="M26.8 53.1c-0.8 0.6-1.4 1.2-1.8 2" stroke="#ffe8de" stroke-width="1.4" stroke-linecap="round" fill="none"/>
  <path d="M37.2 53.1c0.8 0.6 1.4 1.2 1.8 2" stroke="#ffe8de" stroke-width="1.4" stroke-linecap="round" fill="none"/>

  <g transform="translate(18.2 46.2)">
    <ellipse cx="4.3" cy="4.2" rx="2.9" ry="2.35" fill="#ffb8c7"/>
    <circle cx="2.1" cy="1.8" r="1.15" fill="#ffb8c7"/>
    <circle cx="6.5" cy="1.8" r="1.15" fill="#ffb8c7"/>
    <circle cx="3.5" cy="4.2" r="0.34" fill="#8f4b5a"/>
    <circle cx="5.1" cy="4.2" r="0.34" fill="#8f4b5a"/>
    <circle cx="3.4" cy="3.7" r="0.3" fill="#513135"/>
    <circle cx="5.2" cy="3.7" r="0.3" fill="#513135"/>
  </g>

  <g transform="translate(37.3 46.1)">
    <circle cx="2" cy="2.2" r="1.15" fill="#fff7fb"/>
    <circle cx="6.4" cy="2.2" r="1.15" fill="#fff7fb"/>
    <circle cx="2" cy="2.2" r="0.85" fill="#f0d7b2"/>
    <circle cx="6.4" cy="2.2" r="0.85" fill="#f0d7b2"/>
    <ellipse cx="4.2" cy="4.5" rx="2.2" ry="1.8" fill="#f7e6cc"/>
    <circle cx="3.5" cy="4.3" r="0.24" fill="#5a4a47"/>
    <circle cx="4.9" cy="4.3" r="0.24" fill="#5a4a47"/>
    <path d="M3.7 5.2c0.3 0.3 0.7 0.4 1 0" stroke="#b78c89" stroke-width="0.4" stroke-linecap="round" fill="none"/>
  </g>
</svg>
